<?xml version="1.0" encoding="utf-8"?>
<!-- Generator: Adobe Illustrator 19.1.0, SVG Export Plug-In . SVG Version: 6.00 Build 0)  -->
<!DOCTYPE svg PUBLIC "-//W3C//DTD SVG 1.1 Tiny//EN" "http://www.w3.org/Graphics/SVG/1.1/DTD/svg11-tiny.dtd">
<svg version="1.1" baseProfile="tiny" id="Ebene_1" xmlns="http://www.w3.org/2000/svg" xmlns:xlink="http://www.w3.org/1999/xlink"
	 x="0px" y="0px" viewBox="0 0 463.514 463.514" xml:space="preserve">
<g>
	<path fill="#DF0914" d="M408.29,215.009c-16-18.106-33.575-32.06-52.734-41.87c-19.168-9.801-38.101-15.459-56.808-16.974
		c-18.716-1.506-36.291,1.062-52.734,7.695c-16.453,6.642-29.953,17.201-40.512,31.686c1.506-0.905,3.011-1.653,4.527-2.263
		c1.506-0.6,3.011-1.201,4.527-1.811c13.875-11.769,29.649-18.854,47.302-21.275c17.653-2.411,35.454-0.453,53.413,5.884
		c17.949,6.337,35.002,16.679,51.149,31.007c16.138,14.337,29.491,32.522,40.06,54.544c13.275,34.106,22.18,62.466,26.706,85.098
		c-5.136,9.053-10.942,17.88-17.427,26.48c-6.494,8.6-13.51,16.522-21.048,23.764c2.716-24.443,1.358-54.161-4.074-89.172
		c-4.526-23.538-12.605-44.281-24.217-62.239c-11.621-17.949-25.122-32.286-40.512-43.002
		c-15.39-10.706-31.843-17.348-49.339-19.917c-17.506-2.559-34.401-0.374-50.697,6.563h1.811c1.506,0,3.011,0.079,4.527,0.226
		c1.506,0.157,3.011,0.383,4.527,0.679c17.496-2.716,34.401-0.6,50.697,6.337c16.295,6.947,30.554,17.584,42.775,31.912
		c12.222,14.337,21.649,31.686,28.291,52.055c6.633,20.369,9.053,42.628,7.242,66.766c-5.432,34.706-12.831,63.981-22.18,87.814
		c-8.758,4.822-17.88,9.122-27.385,12.901c-9.506,3.769-19.238,6.859-29.196,9.279c15.39-20.822,30.328-47.371,44.812-79.666
		c8.148-23.233,11.543-45.787,10.185-67.671c-1.358-21.875-6.337-41.417-14.937-58.618c-8.6-17.201-20.222-31.076-34.854-41.644
		c-14.642-10.559-31.164-16.443-49.565-17.653c1.506,0.61,3.011,1.289,4.527,2.037c1.506,0.758,3.011,1.741,4.526,2.942
		c17.801,5.432,32.434,15.242,43.907,29.422c11.464,14.189,19.159,30.632,23.085,49.339c3.917,18.716,3.69,38.859-0.679,60.429
		c-4.379,21.579-13.51,42.628-27.385,63.145c-21.727,27.159-42.549,48.581-62.466,64.276c-10.864,0-21.501-0.836-31.912-2.49
		c-10.411-1.663-20.448-4.005-30.101-7.016c22.928-9.958,48.434-25.044,76.498-45.265c18.401-15.991,32.512-33.644,42.323-52.96
		c9.801-19.307,15.39-38.397,16.748-57.26c1.358-18.854-1.437-36.507-8.374-52.96c-6.947-16.443-17.811-29.796-32.591-40.06
		c1.506,1.515,2.785,3.169,3.848,4.979c1.053,1.811,1.88,3.778,2.49,5.884c11.464,13.884,18.254,29.649,20.369,47.302
		c2.106,17.653,0.069,35.307-6.111,52.96c-6.189,17.653-16.522,34.48-31.007,50.47c-14.485,16-32.443,29.275-53.865,39.833
		c-31.39,12.074-59.297,20.074-83.74,23.99c-7.547-4.526-14.868-9.506-21.954-14.937c-7.095-5.432-13.806-11.159-20.143-17.201
		c23.233,2.116,50.697,1.358,82.382-2.263c23.538-4.526,44.36-12.674,62.466-24.443c18.106-11.769,32.512-25.496,43.228-41.191
		c10.706-15.686,17.201-32.364,19.464-50.018c2.263-17.653-0.383-34.628-7.921-50.923v2.263c0,1.21-0.079,2.42-0.226,3.621
		c-0.157,1.21-0.226,2.42-0.226,3.621c3.316,18.106,1.653,35.464-4.979,52.055c-6.642,16.6-17.132,31.164-31.459,43.681
		c-14.337,12.526-31.843,22.18-52.507,28.97c-20.674,6.79-43.228,9.436-67.671,7.921c-30.78-4.822-57.191-11.316-79.214-19.464
		c-5.432-8.748-10.263-17.949-14.485-27.612c-4.231-9.653-7.695-19.612-10.411-29.875c19.011,13.884,43.002,27.159,71.971,39.833
		c22.928,7.852,45.108,11.247,66.54,10.185c21.422-1.053,40.581-5.58,57.487-13.579c16.896-7.991,30.849-19.011,41.87-33.043
		c11.011-14.032,17.427-29.944,19.238-47.755c-0.905,1.811-1.889,3.552-2.942,5.205c-1.062,1.663-2.194,3.247-3.395,4.753
		c-6.337,16.6-16.6,30.18-30.78,40.739c-14.189,10.568-30.554,17.584-49.113,21.048c-18.559,3.473-38.328,2.942-59.297-1.584
		c-20.979-4.527-41.417-13.579-61.334-27.159C34.244,273.253,14.485,255.295,0,239.905v-8.148c0-9.348,0.522-18.559,1.584-27.612
		c1.053-9.053,2.637-17.949,4.753-26.706c9.053,20.526,23.233,44.97,42.549,73.329c15.99,18.716,33.87,32.974,53.639,42.775
		c19.759,9.811,39.154,15.321,58.166,16.522c19.011,1.21,36.812-1.88,53.413-9.279c16.591-7.39,30.023-18.933,40.286-34.628
		c-1.21,0.905-2.42,1.741-3.621,2.49c-1.21,0.758-2.42,1.437-3.621,2.037l-0.905,0.905h-0.453
		c-13.579,12.674-29.422,20.526-47.528,23.538c-18.106,3.021-36.291,1.515-54.544-4.527c-18.263-6.032-35.69-16.295-52.281-30.78
		c-16.6-14.485-30.328-32.886-41.191-55.223c-11.473-30.475-19.316-57.487-23.538-81.024c5.127-9.653,10.933-18.854,17.427-27.612
		c6.485-8.748,13.353-17.044,20.596-24.896c-2.42,24.748-1.811,53.865,1.811,87.361c4.526,23.843,12.743,44.891,24.669,63.145
		c11.917,18.263,25.801,32.669,41.644,43.228c15.843,10.568,32.739,16.905,50.697,19.011c17.949,2.116,35.08-0.905,51.376-9.053
		c-1.21,0.305-2.42,0.453-3.621,0.453c-1.21,0-2.42,0-3.621,0h-4.527c-17.811,3.326-35.08,1.663-51.828-4.979
		c-16.748-6.633-31.311-17.122-43.681-31.459c-12.379-14.328-22.032-31.833-28.97-52.507c-6.947-20.665-9.506-43.071-7.695-67.219
		c5.432-34.096,12.674-62.761,21.727-86.004c7.843-4.822,16.138-9.122,24.896-12.901c8.748-3.769,17.653-7.164,26.706-10.185
		c-14.79,19.917-28.97,45.422-42.549,76.498c-8.148,23.242-11.543,45.718-10.185,67.445s6.259,41.191,14.711,58.392
		c8.443,17.201,19.986,31.164,34.628,41.87c14.633,10.716,31.154,16.679,49.565,17.88c-1.21-0.6-2.342-1.201-3.395-1.811
		c-1.062-0.6-2.194-1.358-3.395-2.263l-0.905-0.453l-0.453-0.453c-17.811-5.432-32.522-15.164-44.133-29.196
		c-11.621-14.032-19.395-30.475-23.311-49.339c-3.926-18.854-3.7-39.076,0.679-60.655c4.369-21.57,13.501-42.618,27.385-63.145
		c21.727-27.159,42.549-48.581,62.466-64.276L231.757,0c10.254,0,20.438,0.679,30.554,2.037c10.106,1.358,19.838,3.395,29.196,6.111
		c-24.148,9.958-51.002,25.653-80.572,47.076c-18.716,16-32.896,33.801-42.549,53.413c-9.663,19.621-15.095,38.928-16.295,57.939
		c-1.21,19.011,1.811,36.822,9.053,53.413c7.242,16.6,18.559,30.032,33.949,40.286c-1.21-1.506-2.263-3.011-3.169-4.527
		c-0.905-1.506-1.811-3.169-2.716-4.979c-12.379-13.58-19.917-29.344-22.632-47.302c-2.716-17.949-1.062-35.986,4.979-54.092
		c6.032-18.106,16.295-35.376,30.78-51.828c14.485-16.443,32.739-29.944,54.771-40.512c34.697-13.275,65.182-21.727,91.435-25.348
		c9.053,5.136,17.575,10.864,25.575,17.201c7.991,6.337,15.616,13.127,22.859,20.369c-26.559-3.621-58.244-3.621-95.057,0
		c-24.148,4.831-45.344,13.284-63.597,25.348c-18.263,12.074-32.669,26.027-43.228,41.87
		c-10.568,15.843-16.827,32.748-18.785,50.697c-1.968,17.958,1.132,35.238,9.279,51.828c-0.305-1.201-0.453-2.332-0.453-3.395
		c0-1.053,0-2.185,0-3.395v-4.074c-3.621-18.106-2.194-35.602,4.3-52.507c6.485-16.896,16.896-31.686,31.233-44.36
		c14.328-12.674,31.912-22.475,52.734-29.422c20.822-6.937,43.454-9.506,67.898-7.695c37.117,6.042,68.045,14.189,92.793,24.443
		c5.432,9.358,10.106,19.168,14.032,29.422c3.917,10.263,7.085,20.822,9.506,31.686c-21.432-16.591-49.496-32.739-84.193-48.434
		c-22.633-7.843-44.665-11.238-66.087-10.185c-21.432,1.062-40.669,5.589-57.713,13.58c-17.053,8-31.085,19.011-42.096,33.043
		c-11.021,14.032-17.427,29.953-19.238,47.755c0.905-1.811,1.958-3.69,3.169-5.658c1.201-1.958,2.411-3.69,3.621-5.205
		c6.633-16.591,17.044-30.101,31.233-40.512c14.18-10.411,30.475-17.27,48.886-20.596c18.401-3.316,38.092-2.716,59.071,1.811
		c20.97,4.527,41.417,13.432,61.334,26.706c28.97,23.843,51.602,46.475,67.898,67.898c-0.305,9.358-1.21,18.637-2.716,27.838
		c-1.515,9.21-3.473,18.332-5.884,27.385C444.65,270.99,429.112,244.283,408.29,215.009z"/>
</g>
</svg>
