<?xml version="1.0" encoding="utf-8"?>
<!-- Generator: Adobe Illustrator 22.1.0, SVG Export Plug-In . SVG Version: 6.00 Build 0)  -->
<svg version="1.1" id="Ebene_1" xmlns="http://www.w3.org/2000/svg" xmlns:xlink="http://www.w3.org/1999/xlink" x="0px" y="0px"
	 viewBox="0 0 113.4 113.4" style="enable-background:new 0 0 113.4 113.4;" xml:space="preserve">
<style type="text/css">
	.st0{fill:#FFFFFF;}
	.st1{fill:#DF0000;}
	.st2{fill:#9D0000;}
</style>
<circle class="st0" cx="56.7" cy="40.6" r="5.1"/>
<circle class="st0" cx="56.7" cy="57.6" r="5.1"/>
<circle class="st0" cx="56.7" cy="74.7" r="5.1"/>
<circle class="st1" cx="56.7" cy="56.7" r="54.1"/>
<circle class="st2" cx="56.2" cy="56.7" r="43.1"/>
<path class="st0" d="M34.4,93.9c6.4,3.8,13.8,5.9,21.8,5.9c7.1,0,13.8-1.7,19.7-4.7c-3.1-7.8-8.8-14.4-19.2-13.9
	C41,82,37.1,87.6,34.4,93.9z"/>
<path class="st0" d="M61.7,28.1c11,2.9,19,12.8,19,24.6c0,14-11.4,25.4-25.4,25.4c-14,0-25.4-11.4-25.4-25.4
	c0-10.6,6.5-19.7,15.8-23.5c2.5-1,8.6-9.5,7.7-12.3c-0.3-1,0.7-1.7,1.5-1.1C61.2,20.9,61,23.4,61.7,28.1L61.7,28.1z"/>
<circle class="st2" cx="48" cy="49" r="3.2"/>
<circle class="st2" cx="62.6" cy="48.9" r="3.2"/>
<g>
	<path class="st2" d="M50.7,62.9c0.1,0.2,0.5,0.6,1,1.1c0.9,0.7,2.1,1.2,3.5,1.2c1.4,0,2.6-0.4,3.5-1.2
		c0.6-0.4,0.9-0.8,1-1.1c0.4-0.7,1.3-0.9,2-0.5c0.7,0.4,0.9,1.3,0.5,2c-0.3,0.5-0.9,1.2-1.7,1.8c-1.4,1.1-3.2,1.7-5.3,1.7
		s-3.8-0.7-5.3-1.7c-0.9-0.7-1.4-1.3-1.7-1.8c-0.4-0.7-0.2-1.6,0.5-2C49.4,62,50.3,62.2,50.7,62.9z"/>
</g>
</svg>
