<?xml version="1.0" encoding="utf-8"?>
<!-- Generator: Adobe Illustrator 22.1.0, SVG Export Plug-In . SVG Version: 6.00 Build 0)  -->
<svg version="1.1" id="Ebene_1" xmlns="http://www.w3.org/2000/svg" xmlns:xlink="http://www.w3.org/1999/xlink" x="0px" y="0px"
	 viewBox="0 0 113.4 113.4" style="enable-background:new 0 0 113.4 113.4;" xml:space="preserve">
<style type="text/css">
	.st0{fill:#DF0000;}
</style>
<path class="st0" d="M56.7,2.6C26.8,2.6,2.6,26.8,2.6,56.7s24.2,54.1,54.1,54.1s54.1-24.2,54.1-54.1S86.6,2.6,56.7,2.6z M40.6,61.8
	c-2.8,0-5.1-2.3-5.1-5.1c0-2.8,2.3-5.1,5.1-5.1c2.8,0,5.1,2.3,5.1,5.1C45.7,59.5,43.4,61.8,40.6,61.8z M57.6,61.8
	c-2.8,0-5.1-2.3-5.1-5.1c0-2.8,2.3-5.1,5.1-5.1c2.8,0,5.1,2.3,5.1,5.1C62.7,59.5,60.4,61.8,57.6,61.8z M74.7,61.8
	c-2.8,0-5.1-2.3-5.1-5.1c0-2.8,2.3-5.1,5.1-5.1c2.8,0,5.1,2.3,5.1,5.1C79.8,59.5,77.5,61.8,74.7,61.8z"/>
</svg>
