<?xml version="1.0" encoding="utf-8"?>
<!-- Generator: Adobe Illustrator 18.1.1, SVG Export Plug-In . SVG Version: 6.00 Build 0)  -->
<svg version="1.1" baseProfile="tiny" xmlns="http://www.w3.org/2000/svg" xmlns:xlink="http://www.w3.org/1999/xlink" x="0px"
	 y="0px" viewBox="0 0 15 16" xml:space="preserve">
<g id="Ebene_30" display="none">
	<rect x="-380.72" y="-375.314" display="inline" fill-rule="evenodd" fill="#DF0000" width="1103" height="1184"/>
</g>
<g id="content_symbols">
</g>
<g id="Ebene_30_Kopie">
</g>
<g id="store_location_pins_google_maps">
</g>
<g id="icons">
</g>
<g id="store_anchor_navigation_icons">
</g>
<g id="checkout_icons">
</g>
<g id="add_this">
</g>
<g id="social_bookmarks">
</g>
<g id="footer_mm_usp_icons">
</g>
<g id="cta">
</g>
<g id="shopping_cart_large">
</g>
<g id="shopping_cart_small">
</g>
<g id="button_arrow">
</g>
<g id="search">
</g>
<g id="pdf">
</g>
<g id="anchor_tag">
</g>
<g id="button_clear">
</g>
<g id="bundle_set">
</g>
<g id="product_rating">
</g>
<g id="delivery_icons">
</g>
<g id="availibility_and_delivery">
</g>
<g id="tech_specs">
</g>
<g id="listen">
</g>
<g id="play_video">
</g>
<g id="breadcrumb">
</g>
<g id="info">
</g>
<g id="fullscreen">
</g>
<g id="print">
</g>
<g id="store_and_contact_icons">
</g>
<g id="meta_navigation">
	<g>
		<path fill="#DF0000" d="M3.215,3.084h0.208c0.37,0,0.67-0.309,0.67-0.688V0.705c0-0.381-0.3-0.688-0.67-0.688H3.215
			c-0.37,0-0.67,0.308-0.67,0.688v1.691C2.545,2.775,2.846,3.084,3.215,3.084z"/>
		<path fill="#DF0000" d="M11.491,3.068h0.208c0.37,0,0.67-0.309,0.67-0.688V0.688c0-0.38-0.3-0.688-0.67-0.688h-0.208
			c-0.37,0-0.67,0.308-0.67,0.688V2.38C10.82,2.759,11.121,3.068,11.491,3.068z"/>
		<path fill="#DF0000" d="M14.989,1.697h-1.967v0.975c0,0.566-0.447,1.026-0.999,1.026h-0.853c-0.552,0-0.999-0.46-0.999-1.026
			V1.697H4.757v1.018c0,0.567-0.447,1.026-0.999,1.026H2.905c-0.552,0-1-0.459-1-1.026V1.697H0
			c0.066,0.349,0.016,12.635,0.016,12.635l0.003,0.004C0.064,15.263,0.807,16,1.724,16h11.562C14.232,16,15,15.216,15,14.138
			C15,14.138,14.98,2.138,14.989,1.697z M2.998,13.948h-1v-1.026h1V13.948z M2.998,11.896h-1V10.87h1V11.896z M2.998,9.844h-1V8.818
			h1V9.844z M2.998,7.792h-1V6.766h1V7.792z M2.998,5.739h-1V4.713h1V5.739z M4.997,13.948H3.997v-1.026h0.999V13.948z
			 M4.997,11.896H3.997V10.87h0.999V11.896z M4.997,9.844H3.997V8.818h0.999V9.844z M4.997,7.792H3.997V6.766h0.999V7.792z
			 M4.997,5.739H3.997V4.713h0.999V5.739z M6.995,13.948h-1v-1.026h1V13.948z M6.995,11.896h-1V10.87h1V11.896z M6.995,9.844h-1
			V8.818h1V9.844z M6.995,7.792h-1V6.766h1V7.792z M6.995,5.739h-1V4.713h1V5.739z M8.994,13.948h-1v-1.026h1V13.948z M8.994,11.896
			h-1V10.87h1V11.896z M8.994,9.844h-1V8.818h1V9.844z M8.994,7.792h-1V6.766h1V7.792z M8.994,5.739h-1V4.713h1V5.739z
			 M10.992,13.948h-1v-1.026h1V13.948z M10.992,11.896h-1V10.87h1V11.896z M10.992,9.844h-1V8.818h1V9.844z M10.992,7.792h-1V6.766
			h1V7.792z M10.992,5.739h-1V4.713h1V5.739z M12.991,13.948h-1v-1.026h1V13.948z M12.991,11.896h-1V10.87h1V11.896z M12.991,9.844
			h-1V8.818h1V9.844z M12.991,7.792h-1V6.766h1V7.792z M12.991,5.739h-1V4.713h1V5.739z"/>
	</g>
</g>
</svg>
