<?xml version="1.0" encoding="utf-8"?>
<!-- Generator: Adobe Illustrator 18.1.1, SVG Export Plug-In . SVG Version: 6.00 Build 0)  -->
<svg version="1.1" id="Ebene_1" xmlns="http://www.w3.org/2000/svg" xmlns:xlink="http://www.w3.org/1999/xlink" x="0px" y="0px"
	 viewBox="0 45.5 960 469" enable-background="new 0 45.5 960 469" xml:space="preserve">
<g id="Ebene_30" display="none">
	<rect x="718.8" y="-16690.8" display="inline" fill="#DBDBDA" width="42355.2" height="45465.6"/>
</g>
<g id="content_symbols">
</g>
<g id="Ebene_30_Kopie">
</g>
<g id="store_location_pins_google_maps">
</g>
<g id="icons">
</g>
<g id="store_anchor_navigation_icons">
</g>
<g id="checkout_icons">
</g>
<g id="add_this">
</g>
<g id="social_bookmarks">
</g>
<g id="footer_mm_usp_icons">
</g>
<g id="cta">
</g>
<g id="shopping_cart_large">
</g>
<g id="shopping_cart_small">
</g>
<g id="button_arrow">
</g>
<g id="search">
</g>
<g id="pdf">
</g>
<g id="anchor_tag">
</g>
<g id="button_clear">
</g>
<g id="bundle_set">
</g>
<g id="product_rating">
</g>
<g id="delivery_icons">
</g>
<g id="availibility_and_delivery">
	<g>
		<path fill="#DF0000" d="M926.2,252.9l-55.4-7.9l0.3-1l-49-152.6c-7.3-26.5-21.2-43.2-44.5-45.1l-468-0.8c-1,0-2,0.5-3,0.5L44.9,46
			c-5.5,0-11.3,4.4-12.9,9.8l-8.8,30c-1.6,5.4,1.6,9.8,7.1,9.8l219,0L228.5,160l-0.4,0.6l-144.3,0c-5.5,0-11.3,4.4-12.9,9.8l-8.8,30
			c-1.6,5.4,1.6,9.8,7.1,9.8l143.2,0l-20.9,64.9l-169.4,0c-5.5,0-11.3,4.4-12.9,9.8l-8.8,30c-1.6,5.4,1.6,9.8,7.1,9.8l168,0.1
			l-20.9,64.9H49.9c-5.5,0-11.3,4.4-12.9,9.8l-8.8,30c-0.9,3.1,0.3,5.3,2.2,6.9l152.5,0.1c1,0.2,1.9,0.7,3,0.8h16
			c16.2-57.1,73.4-103,129.4-103s89.4,45.9,76.2,103h217.1c16.2-57.1,73.4-103,129.4-103c55.9,0,89.4,45.9,76.2,103h50.3
			c24.8-1.8,49-21.2,55.2-45.2l22.4-86.7C964.4,279.8,956.4,255.7,926.2,252.9z M682.3,242.3l41-159.1h42.2l51.3,159.1H682.3z"/>
		<path fill="#DF0000" d="M323.1,365.7c-40,0-81,33.3-91.5,74.4c-10.6,41.1,13.2,74.4,53.2,74.4s81-33.3,91.5-74.4
			C386.8,399,363,365.7,323.1,365.7z"/>
		<path fill="#DF0000" d="M745.7,365.7c-40,0-81,33.3-91.5,74.4c-10.6,41.1,13.2,74.4,53.2,74.4s81-33.3,91.5-74.4
			C809.5,399,785.7,365.7,745.7,365.7z"/>
	</g>
</g>
<g id="tech_specs">
</g>
<g id="listen">
</g>
<g id="play_video">
</g>
<g id="breadcrumb">
</g>
<g id="info" display="none">
</g>
<g id="fullscreen">
</g>
<g id="print">
</g>
<g id="store_and_contact_icons">
</g>
<g id="meta_navigation">
</g>
<g id="new_icons">
</g>
</svg>
