<?xml version="1.0" encoding="utf-8"?>
<!-- Generator: Adobe Illustrator 18.1.1, SVG Export Plug-In . SVG Version: 6.00 Build 0)  -->
<svg version="1.1" baseProfile="tiny" xmlns="http://www.w3.org/2000/svg" xmlns:xlink="http://www.w3.org/1999/xlink" x="0px"
	 y="0px" viewBox="0 0 14 14" xml:space="preserve">
<g id="Ebene_30" display="none">
	<rect x="-137.466" y="-433.936" display="inline" fill-rule="evenodd" fill="#57B119" width="1103" height="1184"/>
</g>
<g id="content_symbols">
</g>
<g id="Ebene_30_Kopie">
</g>
<g id="store_location_pins_google_maps">
</g>
<g id="icons">
</g>
<g id="store_anchor_navigation_icons">
</g>
<g id="checkout_icons">
</g>
<g id="add_this">
</g>
<g id="social_bookmarks">
</g>
<g id="footer_mm_usp_icons">
	<path fill-rule="evenodd" fill="#57B119" d="M7,0C3.132,0,0,3.132,0,7c0,3.867,3.132,7,7,7c3.868,0,7-3.133,7-7
		C14,3.132,10.868,0,7,0z M10.571,5.561c0,0-1.693,1.184-3.919,5.684l-0.388-0.041c0,0-0.183-0.765-1.163-1.388
		C4.316,9.357,3.99,9.062,3.99,9.062l0.142-1.807l2.031,2.071c0,0,1.347-3.163,2.521-4.571c0.51-0.653,1.949-2,1.949-2L10.571,5.561
		z"/>
</g>
<g id="cta">
</g>
<g id="shopping_cart_large">
</g>
<g id="shopping_cart_small">
</g>
<g id="button_arrow">
</g>
<g id="search">
</g>
<g id="pdf">
</g>
<g id="anchor_tag">
</g>
<g id="button_clear">
</g>
<g id="bundle_set">
</g>
<g id="product_rating">
</g>
<g id="delivery_icons">
</g>
<g id="availibility_and_delivery">
</g>
<g id="tech_specs">
</g>
<g id="listen">
</g>
<g id="play_video">
</g>
<g id="breadcrumb">
</g>
<g id="info">
</g>
<g id="fullscreen">
</g>
<g id="print">
</g>
<g id="store_and_contact_icons">
</g>
<g id="meta_navigation">
</g>
<g id="new_icons">
</g>
<g id="sprungfeder" display="none">
</g>
</svg>
